<?xml version="1.0" encoding="UTF-8" standalone="no"?>
<!-- Created with Inkscape (http://www.inkscape.org/) -->

<svg
   width="249.03487"
   height="255.41479"
   viewBox="0 0 65.890474 67.5785"
   version="1.1"
   id="svg5"
   inkscape:version="1.2 (dc2aedaf03, 2022-05-15)"
   sodipodi:docname="logo.svg"
   inkscape:export-filename="logo1.svg"
   inkscape:export-xdpi="96"
   inkscape:export-ydpi="96"
   xmlns:inkscape="http://www.inkscape.org/namespaces/inkscape"
   xmlns:sodipodi="http://sodipodi.sourceforge.net/DTD/sodipodi-0.dtd"
   xmlns="http://www.w3.org/2000/svg"
   xmlns:svg="http://www.w3.org/2000/svg">
  <sodipodi:namedview
     id="namedview7"
     pagecolor="#505050"
     bordercolor="#eeeeee"
     borderopacity="1"
     inkscape:pageshadow="0"
     inkscape:pageopacity="0"
     inkscape:pagecheckerboard="0"
     inkscape:document-units="mm"
     showgrid="false"
     units="px"
     showborder="false"
     inkscape:zoom="1"
     inkscape:cx="207.5"
     inkscape:cy="225.5"
     inkscape:window-width="1304"
     inkscape:window-height="745"
     inkscape:window-x="1974"
     inkscape:window-y="131"
     inkscape:window-maximized="1"
     inkscape:current-layer="layer1"
     inkscape:showpageshadow="2"
     inkscape:deskcolor="#505050" />
  <defs
     id="defs2" />
  <g
     inkscape:label="Layer 1"
     inkscape:groupmode="layer"
     id="layer1"
     transform="translate(-87.115099,-45.850428)">
    <path
       id="path1957"
       style="fill:#0044aa;stroke-width:0.164596"
       inkscape:transform-center-x="0.038200444"
       inkscape:transform-center-y="-10.941535"
       d="m 92.2233,56.962927 c -6.621248,2.726237 4.482595,13.425119 2.340432,21.353736 -2.940909,10.884948 -7.44864,32.995407 -7.44864,32.995407 l 6.64869,0.077 4.090193,-18.117237 4.107225,-18.193722 4.0442,18.28829 4.02715,18.210779 c 0,0 5.25097,1.79709 6.64869,0.077 7.1404,-8.78723 -4.88971,-22.110946 -7.33444,-33.166448 C 106.90208,67.43226 100.70116,53.472246 92.2233,56.962927 Z"
       sodipodi:nodetypes="asccccccasa" />
    <path
       style="fill:#dbe3e2;stroke-width:0.264583"
       d="M 91.016666,109.80208 101.07083,65.616666"
       id="path2024" />
    <path
       style="fill:#0044aa;stroke-width:0.264583"
       d="M 90.487499,110.06667 101.33542,60.589583 Z"
       id="path2152" />
    <path
       id="path669"
       style="fill:#0044aa;stroke-width:0.164596"
       inkscape:transform-center-x="0.038200444"
       inkscape:transform-center-y="-10.941535"
       d="m 110.74413,57.227511 c -6.62124,2.726237 4.4826,13.425119 2.34044,21.353736 -2.94091,10.884948 -14.437981,24.147803 -7.44864,32.995413 1.3739,1.73918 6.64869,0.077 6.64869,0.077 l 4.09019,-18.117243 4.10722,-18.193722 4.0442,18.28829 4.02715,18.210785 6.64869,0.077 c 0,0 -4.88971,-22.110952 -7.33444,-33.166454 -2.44472,-11.055472 -8.64564,-25.015486 -17.1235,-21.524805 z"
       sodipodi:nodetypes="asaccccccsa" />
    <path
       id="path671"
       style="fill:#dbe3de;stroke-width:0.164596"
       inkscape:transform-center-x="-0.038202207"
       inkscape:transform-center-y="10.941535"
       d="m 150.44154,113.33418 c 6.62124,-2.72623 -4.4826,-13.425107 -2.34044,-21.353727 2.94091,-10.88495 14.43798,-24.147797 7.44864,-32.995407 -1.3739,-1.73918 -6.64869,-0.077 -6.64869,-0.077 l -4.09019,18.11724 -4.10722,18.193717 -4.04419,-18.288287 -4.02715,-18.21078 -6.64869,-0.077 c 0,0 4.88971,22.110947 7.33444,33.166447 2.44472,11.055467 8.64563,25.015487 17.12349,21.524797 z"
       sodipodi:nodetypes="asaccccccsa" />
  </g>
</svg>
